<svg width="48" height="48" viewBox="0 0 48 48" fill="none" xmlns="http://www.w3.org/2000/svg">
<rect width="48" height="48" rx="24" fill="url(#paint0_radial_1546_48828)"/>
<path d="M30.9318 24.7173C30.7362 24.7173 30.5685 24.6331 30.4288 24.5208C30.289 24.3805 30.2331 24.2121 30.2331 24.0156V19.4681L26.2366 15.3979C26.0969 15.2576 26.041 15.0891 26.041 14.8926V8.57676C26.041 8.38027 26.1248 8.21185 26.2366 8.07149C26.3764 7.95921 26.572 7.875 26.7397 7.875H30.9318C31.1275 7.875 31.2951 7.95921 31.4349 8.07149L34.1458 10.7943C34.2855 10.9347 34.3414 11.1031 34.3414 11.2996C34.3414 11.4961 34.2576 11.6645 34.1458 11.7768C34.0061 11.9172 33.8384 11.9733 33.6707 11.9733C33.4751 11.9733 33.3074 11.9172 33.1676 11.7768L30.6523 9.25046H27.4384V14.5839L31.4349 18.6822C31.5746 18.8225 31.6305 18.9909 31.6305 19.1874V24.0156C31.6305 24.2121 31.5467 24.3805 31.4349 24.5208C31.2951 24.6331 31.1275 24.7173 30.9318 24.7173Z" fill="#94A0FD"/>
<path d="M8.57369 25.4191C8.37806 25.4191 8.21037 25.3348 8.07063 25.2226C7.9309 25.0822 7.875 24.9138 7.875 24.7173V16.9979C7.875 16.8014 7.95884 16.633 8.07063 16.4926L16.4549 8.07149C16.5946 7.95921 16.7903 7.875 16.958 7.875H22.5475C22.7431 7.875 22.9108 7.95921 23.0505 8.07149C23.1903 8.21185 23.2462 8.38027 23.2462 8.57676C23.2462 8.77326 23.1623 8.94168 23.0505 9.08203C22.9108 9.19431 22.7431 9.27852 22.5475 9.27852H17.2654L9.27238 17.2786V24.7173C9.27238 24.9138 9.18854 25.0822 9.07675 25.2226C8.93701 25.3348 8.76932 25.4191 8.57369 25.4191Z" fill="#94A0FD"/>
<path d="M12.7658 29.6297H8.57369C8.37806 29.6297 8.21037 29.5454 8.07063 29.4332C7.9309 29.2928 7.875 29.1244 7.875 28.9279C7.875 28.7314 7.95884 28.563 8.07063 28.4226C8.18242 28.2823 8.37806 28.2261 8.57369 28.2261H12.0671V21.9103C12.0671 21.7138 12.151 21.5454 12.2628 21.405L17.7684 15.8751C17.9082 15.7348 18.0759 15.6786 18.2715 15.6786C18.4671 15.6786 18.6348 15.7628 18.7466 15.8751C18.8863 16.0155 18.9422 16.1839 18.9422 16.3523C18.9422 16.5488 18.8863 16.7172 18.7466 16.8576L13.4366 22.191V28.9279C13.4366 29.1244 13.3527 29.2928 13.2409 29.4332C13.1291 29.5454 12.9615 29.6297 12.7658 29.6297Z" fill="#C2E8FD"/>
<path d="M30.9317 40.1561H25.3422C25.1466 40.1561 24.9789 40.0719 24.8392 39.9596C24.6994 39.8193 24.6435 39.6508 24.6435 39.4543C24.6435 39.2579 24.7274 39.0894 24.8392 38.9491C24.9789 38.8087 25.1466 38.7526 25.3422 38.7526H30.6523L38.6173 30.7525V23.3138C38.6173 23.1173 38.7012 22.9489 38.813 22.8085C38.9527 22.6682 39.1204 22.612 39.316 22.612C39.5116 22.612 39.6793 22.6962 39.8191 22.8085C39.9588 22.9489 40.0147 23.1173 40.0147 23.3138V31.0332C40.0147 31.2297 39.9309 31.3981 39.8191 31.5385L31.4348 39.9596C31.2951 40.0719 31.1274 40.1561 30.9317 40.1561Z" fill="#94A0FD"/>
<path d="M21.1502 40.1561H16.958C16.7624 40.1561 16.5947 40.0719 16.455 39.9596L13.744 37.2368C13.6043 37.0964 13.5484 36.928 13.5484 36.7315C13.5484 36.535 13.6323 36.3666 13.744 36.2543C13.8838 36.114 14.0515 36.0578 14.2192 36.0578C14.4148 36.0578 14.5825 36.114 14.7222 36.2543L17.2375 38.7807H20.4515V33.4192L16.455 29.4332C16.3152 29.2928 16.2593 29.1244 16.2593 28.9279V24.0155C16.2593 23.8191 16.3432 23.6506 16.455 23.5103C16.5947 23.3699 16.7624 23.3138 16.958 23.3138C17.1537 23.3138 17.3213 23.398 17.4611 23.5103C17.6008 23.6506 17.6567 23.8191 17.6567 24.0155V28.6472L21.6532 32.6613C21.793 32.8016 21.8489 32.97 21.8489 33.1665V39.4824C21.8489 39.6789 21.765 39.8473 21.6532 39.9877C21.5135 40.0719 21.3458 40.1561 21.1502 40.1561Z" fill="#94A0FD"/>
<path d="M29.6182 32.3525C29.4785 32.3525 29.3388 32.3244 29.227 32.2402C29.1152 32.156 29.0313 32.0437 28.9754 31.9314C28.9195 31.7911 28.9195 31.6507 28.9475 31.5384C28.9754 31.3981 29.0313 31.2858 29.1431 31.1735L34.4532 25.8401V19.1032C34.4532 18.9067 34.537 18.7383 34.6488 18.598C34.7885 18.4576 34.9562 18.4015 35.1519 18.4015H39.344C39.5396 18.4015 39.7073 18.4857 39.847 18.598C39.9868 18.7383 40.0427 18.9067 40.0427 19.1032C40.0427 19.2997 39.9588 19.4681 39.847 19.6085C39.7073 19.7488 39.5396 19.805 39.344 19.805H35.8505V26.1208C35.8505 26.3173 35.7667 26.4858 35.6549 26.6261L30.1213 32.156C29.9816 32.2683 29.8139 32.3525 29.6182 32.3525Z" fill="#C2E8FD"/>
<path d="M23.9449 26.8226C23.386 26.8226 22.855 26.6542 22.3798 26.3454C21.9047 26.0366 21.5694 25.5875 21.3458 25.0822C21.1222 24.577 21.0663 24.0155 21.1781 23.4541C21.2899 22.9208 21.5414 22.4155 21.9327 22.0225C22.324 21.6296 22.827 21.3488 23.358 21.2646C23.889 21.1524 24.4759 21.2085 24.979 21.4331C25.482 21.6576 25.9292 21.9945 26.2366 22.4717C26.544 22.9208 26.7117 23.4822 26.7117 24.0436C26.7117 24.8015 26.4043 25.5033 25.9012 26.0366C25.3982 26.5138 24.6995 26.8226 23.9449 26.8226Z" fill="#FCFCFC"/>
<path d="M35.1239 15.5944C34.5649 15.5944 34.0339 15.426 33.5588 15.1172C33.1117 14.8084 32.7483 14.3593 32.5248 13.854C32.3012 13.3488 32.2453 12.7873 32.3571 12.2259C32.4689 11.6926 32.7204 11.1873 33.1117 10.7943C33.5309 10.4013 34.0339 10.1487 34.5929 10.0364C35.1239 9.92414 35.7108 9.98029 36.2138 10.2049C36.7169 10.4294 37.164 10.7663 37.4715 11.2435C37.7789 11.6926 37.9466 12.254 37.9466 12.8154C37.9466 13.5733 37.6391 14.2751 37.1361 14.8084C36.5771 15.2856 35.8785 15.5944 35.1239 15.5944Z" fill="#FCFCFC"/>
<path d="M12.7658 38.0508C12.2069 38.0508 11.6758 37.8824 11.2007 37.5736C10.7536 37.2648 10.3903 36.8157 10.1667 36.3104C9.9431 35.8052 9.8872 35.2438 9.999 34.6824C10.1108 34.149 10.3623 33.6437 10.7536 33.2508C11.1448 32.8578 11.6479 32.5771 12.1789 32.4928C12.7099 32.3806 13.2968 32.4367 13.7999 32.6613C14.3029 32.8858 14.7501 33.2227 15.0575 33.6999C15.3649 34.149 15.5326 34.7104 15.5326 35.2718C15.5326 36.0297 15.2252 36.7315 14.7221 37.2648C14.2191 37.742 13.5204 38.0508 12.7658 38.0508Z" fill="#FCFCFC"/>
<path d="M19.7527 17.6997C19.1938 17.6997 18.6628 17.5313 18.1876 17.2225C17.7125 16.9137 17.3772 16.4646 17.1536 15.9593C16.93 15.454 16.8741 14.8926 16.9859 14.3312C17.0977 13.7979 17.3492 13.2926 17.7405 12.8996C18.1318 12.5066 18.6348 12.2259 19.1658 12.1417C19.6968 12.0294 20.2837 12.0856 20.7868 12.3101C21.2898 12.5347 21.737 12.8715 22.0444 13.3487C22.3518 13.7979 22.5195 14.3593 22.5195 14.9207C22.5195 15.6786 22.2121 16.3804 21.709 16.9137C21.206 17.3909 20.5073 17.6997 19.7527 17.6997Z" fill="#41B8FD"/>
<path d="M28.1371 35.9455C27.5781 35.9455 27.0471 35.7771 26.572 35.4683C26.1248 35.1596 25.7615 34.7104 25.5379 34.2052C25.3143 33.6999 25.2585 33.1385 25.3702 32.5771C25.482 32.0437 25.7336 31.5385 26.1248 31.1455C26.5161 30.7525 27.0192 30.4718 27.5502 30.3876C28.0812 30.2753 28.6681 30.3314 29.1711 30.556C29.6742 30.7806 30.1213 31.1174 30.4288 31.5946C30.7362 32.0718 30.9039 32.6051 30.9039 33.1665C30.9039 33.9245 30.5964 34.6262 30.0934 35.1596C29.5903 35.6368 28.8916 35.9455 28.1371 35.9455Z" fill="#41B8FD"/>
<defs>
<radialGradient id="paint0_radial_1546_48828" cx="0" cy="0" r="1" gradientUnits="userSpaceOnUse" gradientTransform="translate(24 24) rotate(90) scale(24)">
<stop stop-color="#081C49"/>
<stop offset="0.510417" stop-color="#182D5F"/>
</radialGradient>
</defs>
</svg>
